<svg xmlns="http://www.w3.org/2000/svg" xmlns:xlink="http://www.w3.org/1999/xlink" width="500" zoomAndPan="magnify" viewBox="0 0 375 374.999991" height="500" preserveAspectRatio="xMidYMid meet" version="1.0"><defs><clipPath id="fd4e3fe1c8"><path d="M 14.777344 11.628906 L 360.527344 11.628906 L 360.527344 357.378906 L 14.777344 357.378906 Z M 14.777344 11.628906 " clip-rule="nonzero"/></clipPath></defs><g clip-path="url(#fd4e3fe1c8)"><path fill="#545454" d="M 275.996094 256.636719 C 272.371094 260.289062 267.644531 262.132812 262.855469 262.132812 C 258.070312 262.132812 253.339844 260.289062 249.6875 256.636719 C 242.414062 249.363281 242.414062 237.636719 249.6875 230.332031 C 252.667969 227.355469 254.292969 223.332031 254.292969 219.097656 C 254.292969 214.859375 252.667969 210.808594 249.6875 207.832031 C 246.710938 204.886719 242.691406 203.257812 238.453125 203.257812 L 139.523438 203.257812 L 177.277344 241.257812 C 184.492188 248.59375 184.492188 260.382812 177.1875 267.59375 C 173.535156 271.15625 168.835938 272.96875 164.109375 272.96875 C 159.320312 272.96875 154.503906 271.15625 150.882812 267.503906 L 81.511719 197.488281 C 74.328125 190.183594 74.328125 178.457031 81.511719 171.242188 L 150.882812 101.71875 C 158.15625 94.414062 169.882812 94.414062 177.1875 101.71875 C 184.492188 109.023438 184.492188 120.75 177.1875 128.054688 L 139.246094 166.085938 L 238.363281 166.085938 C 252.574219 166.085938 265.835938 171.550781 275.902344 181.617188 C 285.910156 191.625 291.464844 204.976562 291.464844 219.1875 C 291.558594 233.308594 286 246.570312 276.023438 256.636719 Z M 187.652344 11.628906 C 92.191406 11.628906 14.777344 89.042969 14.777344 184.503906 C 14.777344 279.964844 92.191406 357.378906 187.652344 357.378906 C 283.117188 357.378906 360.527344 279.964844 360.527344 184.503906 C 360.527344 89.042969 283.117188 11.628906 187.652344 11.628906 " fill-opacity="1" fill-rule="nonzero"/></g></svg>