<svg xmlns="http://www.w3.org/2000/svg" xmlns:xlink="http://www.w3.org/1999/xlink" width="500" zoomAndPan="magnify" viewBox="0 0 375 374.999991" height="500" preserveAspectRatio="xMidYMid meet" version="1.0"><defs><clipPath id="51b3886d79"><path d="M 21.515625 14.582031 L 353.765625 14.582031 L 353.765625 346.832031 L 21.515625 346.832031 Z M 21.515625 14.582031 " clip-rule="nonzero"/></clipPath></defs><g clip-path="url(#51b3886d79)"><path fill="#ffffff" d="M 187.660156 24.179688 C 101.34375 24.179688 31.121094 94.40625 31.121094 180.722656 C 31.121094 267.042969 101.34375 337.261719 187.660156 337.261719 C 273.976562 337.261719 344.203125 267.042969 344.203125 180.722656 C 344.203125 94.40625 273.976562 24.179688 187.660156 24.179688 Z M 187.660156 346.875 C 96.050781 346.875 21.515625 272.339844 21.515625 180.722656 C 21.515625 89.109375 96.050781 14.574219 187.660156 14.574219 C 279.273438 14.574219 353.808594 89.109375 353.808594 180.722656 C 353.808594 272.339844 279.273438 346.875 187.660156 346.875 " fill-opacity="1" fill-rule="nonzero"/></g><path fill="#ffffff" d="M 269.472656 180.722656 L 142.214844 107.25 L 142.214844 254.199219 L 269.472656 180.722656 L 142.214844 107.25 L 142.214844 254.199219 L 269.472656 180.722656 " fill-opacity="1" fill-rule="nonzero"/></svg>